<?xml version="1.0" encoding="utf-8"?>
<!-- Generator: Adobe Illustrator 19.2.1, SVG Export Plug-In . SVG Version: 6.00 Build 0)  -->
<svg version="1.1" xmlns="http://www.w3.org/2000/svg" xmlns:xlink="http://www.w3.org/1999/xlink" x="0px" y="0px"
	 viewBox="0 0 1239.9 513" style="enable-background:new 0 0 1239.9 513;" xml:space="preserve">
<style type="text/css">
	.st0{fill:#2B2B2B;}
	.st1{fill:#0B7C66;}
	.st2{fill:#0EAF90;}
	.st3{fill:#18E8C0;}
	.st4{fill:#F4F4F4;}
</style>
<g id="Capa_3">
	<path class="st0" d="M540.3,465H52c-2.8,0-5-2.3-5-5V57.5c0-2.8,2.3-5,5-5h488.3c2.8,0,5,2.3,5,5V460
		C545.3,462.7,543,465,540.3,465z"/>
</g>
<g id="figure">
	<g>
		<path class="st1" d="M106.7,388h59.1c3.4,0,6.2-3.1,6.2-6.9V101c0-3.8-2.8-6.9-6.2-6.9h-59.1c-3.4,0-6.2,3.1-6.2,6.9v280.1
			C100.6,384.9,103.3,388,106.7,388z"/>
		<path class="st2" d="M213.6,388h-61.1c-2.8,0-4.8-2.8-3.8-5.4l50.5-138.8c0.6-1.6,2.1-2.7,3.8-2.7h61.1c2.8,0,4.8,2.8,3.8,5.4
			l-50.5,138.8C216.8,386.9,215.3,388,213.6,388z"/>
		<path class="st3" d="M203.1,241.1h61.1c2.8,0,4.8-2.8,3.8-5.4L217.4,96.8c-0.6-1.6-2.1-2.7-3.8-2.7h-61.1c-2.8,0-4.8,2.8-3.8,5.4
			l50.5,138.8C199.9,240,201.4,241.1,203.1,241.1z"/>
	</g>
</g>
<g id="text">
	<g>
		<path class="st4" d="M324.2,263.3h46.5v30.8h-46.5v63.1h58.5V388h-92.4V172.5h92.4v30.8h-58.5V263.3z"/>
		<path class="st4" d="M454.4,348.3h0.6l25.6-175.8h31.1L478.4,388h-50.5l-33.3-215.5h34.2L454.4,348.3z"/>
		<path class="st0" d="M575.1,172.5H609v184.7h55.7V388h-89.6V172.5z"/>
		<path class="st0" d="M676.7,224.2c0-34.5,18.2-54.2,51.4-54.2c33.3,0,51.4,19.7,51.4,54.2v112.1c0,34.5-18.2,54.2-51.4,54.2
			c-33.3,0-51.4-19.7-51.4-54.2V224.2z M764.4,126.9L733,161.1h-22.8l20.9-34.2H764.4z M710.6,338.4c0,15.4,6.8,21.2,17.5,21.2
			s17.5-5.8,17.5-21.2V222c0-15.4-6.8-21.2-17.5-21.2s-17.5,5.9-17.5,21.2V338.4z"/>
		<path class="st0" d="M901.8,225.7v28c0,34.5-16.6,53.3-50.5,53.3h-16v81h-33.9V172.5h49.9C885.1,172.5,901.8,191.3,901.8,225.7z
			 M835.2,203.3v73h16c10.8,0,16.6-4.9,16.6-20.3v-32.3c0-15.4-5.8-20.3-16.6-20.3H835.2z"/>
		<path class="st0" d="M951.3,263.3h46.5v30.8h-46.5v63.1h58.5V388h-92.4V172.5h92.4v30.8h-58.5V263.3z"/>
		<path class="st0" d="M1124.7,172.5v30.2l-64.3,154.6h64.3V388h-99.1v-30.2l64.3-154.6h-61.3v-30.8H1124.7z"/>
		<path class="st0" d="M1177.3,355.4V388h-32.6v-32.6H1177.3z"/>
	</g>
	<polygon class="st2" points="709.8,160.4 733.4,160.4 772.6,121.4 730.2,121.4 	"/>
	<g>
	</g>
	<g>
	</g>
	<g>
	</g>
	<g>
	</g>
	<g>
	</g>
	<g>
	</g>
	<g>
	</g>
	<g>
	</g>
	<g>
	</g>
	<g>
	</g>
	<g>
	</g>
	<g>
	</g>
	<g>
	</g>
	<g>
	</g>
	<g>
	</g>
</g>
</svg>
